<?xml version="1.0" encoding="utf-8"?>
<!-- Generator: Adobe Illustrator 24.0.2, SVG Export Plug-In . SVG Version: 6.00 Build 0)  -->
<svg version="1.1" id="Слой_1" xmlns="http://www.w3.org/2000/svg" xmlns:xlink="http://www.w3.org/1999/xlink" x="0px" y="0px"
	 viewBox="0 0 20 20" style="enable-background:new 0 0 20 20;" xml:space="preserve">
<style type="text/css">
	.st0{fill:#020203;}
</style>
<g id="Livello_106">
	<path class="st0" d="M12.92,10.18l5.7,4.89l-0.52,0.52l-5.75-4.93l-2.4,2.06l-2.37-2.03l-5.72,4.9l-0.55-0.55L7,10.18L1.29,5.3
		l0.52-0.52l8.12,6.96l1.84-1.57l-0.01,0h0.01l6.28-5.38l0.55,0.55L12.92,10.18z M20,15.59V4.77C20,4.35,19.65,4,19.23,4
		c0,0-0.01,0-0.01,0c0,0-0.01,0-0.01,0c-0.05,0-0.09,0.01-0.14,0.01V4H1.5v0H0.7C0.7,4,0.69,4,0.68,4c0,0-0.01,0-0.01,0
		c0,0-0.01,0-0.01,0C0.24,4-0.09,4.34-0.09,4.76c0,0,0,0.01,0,0.01s0,0.01,0,0.01v10.82c0,0.43,0.35,0.77,0.77,0.77h18.55
		C19.65,16.37,20,16.02,20,15.59"/>
</g>
</svg>
