<?xml version="1.0" encoding="utf-8"?>
<!-- Generator: Adobe Illustrator 24.0.2, SVG Export Plug-In . SVG Version: 6.00 Build 0)  -->
<svg version="1.1" id="Слой_1" xmlns="http://www.w3.org/2000/svg" xmlns:xlink="http://www.w3.org/1999/xlink" x="0px" y="0px"
	 viewBox="0 0 20 20" style="enable-background:new 0 0 20 20;" xml:space="preserve">
<style type="text/css">
	.st0{fill:none;stroke:#020203;stroke-width:2;stroke-miterlimit:10;}
</style>
<path class="st0" d="M11.58,14.02c0,0,1.47-0.84,1.85-1.04c0.38-0.2,0.78-0.25,1.02-0.11c0.36,0.22,3.43,2.26,3.68,2.44
	c0.26,0.18,0.38,0.7,0.03,1.2c-0.35,0.51-1.98,2.5-2.67,2.48c-0.69-0.02-3.57-0.09-8.98-5.51C1.09,8.07,1.02,5.2,1,4.51
	C0.98,3.82,2.98,2.19,3.48,1.83c0.51-0.35,1.02-0.22,1.2,0.03C4.89,2.15,6.9,5.2,7.12,5.55c0.15,0.24,0.1,0.64-0.11,1.02
	c-0.2,0.38-1.04,1.85-1.04,1.85s0.59,1.01,2.59,3.01C10.57,13.43,11.58,14.02,11.58,14.02z"/>
</svg>
